<svg width="24" height="21" viewBox="0 0 24 21" fill="none" xmlns="http://www.w3.org/2000/svg">
<path d="M5.86523 4.97409H6.20809C6.72972 4.97409 7.15339 4.60901 7.15339 4.15953V1.07223C7.15339 0.622748 6.72972 0.257675 6.20809 0.257675H5.86523C5.3436 0.257675 4.91992 0.622748 4.91992 1.07223V4.15953C4.91992 4.60901 5.3436 4.97409 5.86523 4.97409ZM17.9828 4.95298H18.3256C18.8473 4.95298 19.2709 4.58791 19.2709 4.13843V1.05113C19.2709 0.601646 18.8473 0.236572 18.3256 0.236572H17.9828C17.4611 0.236572 17.0375 0.601646 17.0375 1.05113V4.13843C17.0375 4.58791 17.4611 4.95298 17.9828 4.95298Z" fill="#222222"/>
<path d="M22.4645 1.91211H20.04V4.35156C20.04 5.16612 19.271 5.61349 18.3282 5.61349H17.9853C17.04 5.61349 16.2735 4.95087 16.2735 4.13842V1.91211H7.92V4.15953C7.92 4.97408 7.15102 5.63459 6.20816 5.63459H5.86531C4.92 5.63459 4.15347 4.97197 4.15347 4.15953V1.91211H1.53551C0.688163 1.91211 0 2.5072 0 3.23524V19.2288C0 19.959 0.688163 20.552 1.53551 20.552H22.4645C23.3118 20.552 24 19.959 24 19.2288V3.23524C24 2.5072 23.3118 1.91211 22.4645 1.91211ZM22.4645 19.2288H1.53551V7.15186H22.4645V19.2288Z" fill="#222222"/>
<path d="M12.7926 11.2032H15.5502C15.6604 11.2032 15.7485 11.1272 15.7485 11.0323V8.97476C15.7485 8.8798 15.6604 8.80383 15.5502 8.80383H12.7926C12.6824 8.80383 12.5942 8.8798 12.5942 8.97476V11.0323C12.5942 11.1251 12.6824 11.2032 12.7926 11.2032ZM17.2938 11.2032H20.0514C20.1616 11.2032 20.2498 11.1272 20.2498 11.0323V8.97476C20.2498 8.8798 20.1616 8.80383 20.0514 8.80383H17.2938C17.1836 8.80383 17.0955 8.8798 17.0955 8.97476V11.0323C17.0955 11.1251 17.1836 11.2032 17.2938 11.2032ZM3.79016 14.5711H6.54772C6.65792 14.5711 6.74608 14.4952 6.74608 14.4002V12.3427C6.74608 12.2478 6.65792 12.1718 6.54772 12.1718H3.79016C3.67996 12.1718 3.5918 12.2478 3.5918 12.3427V14.4002C3.5918 14.4952 3.68241 14.5711 3.79016 14.5711ZM8.29139 14.5711H11.0489C11.1591 14.5711 11.2473 14.4952 11.2473 14.4002V12.3427C11.2473 12.2478 11.1591 12.1718 11.0489 12.1718H8.29139C8.18118 12.1718 8.09302 12.2478 8.09302 12.3427V14.4002C8.09302 14.4952 8.18118 14.5711 8.29139 14.5711ZM12.7926 14.5711H15.5502C15.6604 14.5711 15.7485 14.4952 15.7485 14.4002V12.3427C15.7485 12.2478 15.6604 12.1718 15.5502 12.1718H12.7926C12.6824 12.1718 12.5942 12.2478 12.5942 12.3427V14.4002C12.5942 14.4952 12.6824 14.5711 12.7926 14.5711ZM17.2938 14.5711H20.0514C20.1616 14.5711 20.2498 14.4952 20.2498 14.4002V12.3427C20.2498 12.2478 20.1616 12.1718 20.0514 12.1718H17.2938C17.1836 12.1718 17.0955 12.2478 17.0955 12.3427V14.4002C17.0955 14.4952 17.1836 14.5711 17.2938 14.5711ZM6.54772 15.5419H3.79016C3.67996 15.5419 3.5918 15.6178 3.5918 15.7128V17.7703C3.5918 17.8653 3.67996 17.9412 3.79016 17.9412H6.54772C6.65792 17.9412 6.74608 17.8653 6.74608 17.7703V15.7128C6.74608 15.6178 6.65792 15.5419 6.54772 15.5419ZM11.0489 15.5419H8.29139C8.18118 15.5419 8.09302 15.6178 8.09302 15.7128V17.7703C8.09302 17.8653 8.18118 17.9412 8.29139 17.9412H11.0489C11.1591 17.9412 11.2473 17.8653 11.2473 17.7703V15.7128C11.2473 15.6178 11.1591 15.5419 11.0489 15.5419ZM15.5502 15.5419H12.7926C12.6824 15.5419 12.5942 15.6178 12.5942 15.7128V17.7703C12.5942 17.8653 12.6824 17.9412 12.7926 17.9412H15.5502C15.6604 17.9412 15.7485 17.8653 15.7485 17.7703V15.7128C15.7485 15.6178 15.6604 15.5419 15.5502 15.5419ZM20.0514 15.5419H17.2938C17.1836 15.5419 17.0955 15.6178 17.0955 15.7128V17.7703C17.0955 17.8653 17.1836 17.9412 17.2938 17.9412H20.0514C20.1616 17.9412 20.2498 17.8653 20.2498 17.7703V15.7128C20.2498 15.6178 20.1591 15.5419 20.0514 15.5419Z" fill="#222222"/>
</svg>
