<svg width="17" height="16" viewBox="0 0 17 16" fill="none" xmlns="http://www.w3.org/2000/svg">
<path fill-rule="evenodd" clip-rule="evenodd" d="M8.26511 0.109802C8.02469 0.109802 7.78428 0.247999 7.69447 0.524392L6.15467 5.2634C6.07435 5.51062 5.84398 5.67799 5.58404 5.67799H0.60115C0.0199162 5.67799 -0.221749 6.42176 0.248479 6.7634L4.27972 9.69227C4.49001 9.84506 4.57801 10.1159 4.49768 10.3631L2.95789 15.1021C2.77828 15.6549 3.41096 16.1146 3.88119 15.7729L7.91243 12.8441C8.01758 12.7677 8.14134 12.7295 8.26511 12.7295V0.109802Z" fill="#FDB022"/>
<path fill-rule="evenodd" clip-rule="evenodd" d="M8.26514 12.7295C8.3889 12.7295 8.51266 12.7677 8.61781 12.8441L12.6491 15.7729C13.1193 16.1146 13.752 15.6549 13.5724 15.1021L12.0326 10.3631C11.9522 10.1159 12.0402 9.84506 12.2505 9.69227L16.2818 6.7634C16.752 6.42176 16.5103 5.67799 15.9291 5.67799H10.9462C10.6863 5.67799 10.4559 5.51062 10.3756 5.2634L8.83577 0.524392C8.74597 0.247999 8.50555 0.109802 8.26514 0.109802V12.7295Z" fill="#EEEEEE"/>
</svg>
