<svg width="32" height="32" viewBox="0 0 32 32" fill="none" xmlns="http://www.w3.org/2000/svg">
<rect width="32" height="32" rx="16" fill="url(#paint0_radial_4864_6506)"/>
<path d="M11.32 10.22C12.56 9.79333 13.92 9.58 15.4 9.58C16.88 9.58 17.9533 9.86667 18.62 10.44C19.3 11 19.64 11.8933 19.64 13.12C19.64 13.6533 19.5333 14.1333 19.32 14.56C19.12 14.9867 18.9133 15.3 18.7 15.5C18.4867 15.6867 18.22 15.8867 17.9 16.1C18.6067 16.4333 19.1133 16.8 19.42 17.2C19.74 17.5867 19.9 18.22 19.9 19.1C19.9 20.5 19.5467 21.54 18.84 22.22C18.1467 22.8867 17.0333 23.22 15.5 23.22C14.9 23.22 14.24 23.1667 13.52 23.06C12.8 22.9667 12.2267 22.8667 11.8 22.76L11.18 22.6L11.32 20.88C12.7867 21.1467 14.08 21.28 15.2 21.28C16.8 21.2667 17.6 20.56 17.6 19.16C17.6 18.52 17.3933 18.0333 16.98 17.7C16.5667 17.3667 16.02 17.1933 15.34 17.18H12.68V15.32H15.34C15.8333 15.32 16.2867 15.12 16.7 14.72C17.1267 14.3067 17.34 13.8133 17.34 13.24C17.34 12.6533 17.1533 12.22 16.78 11.94C16.42 11.66 15.92 11.52 15.28 11.52C14.2267 11.52 13.14 11.6133 12.02 11.8L11.5 11.9L11.32 10.22Z" fill="black"/>
<defs>
<radialGradient id="paint0_radial_4864_6506" cx="0" cy="0" r="1" gradientUnits="userSpaceOnUse" gradientTransform="translate(16 16) rotate(90) scale(16)">
<stop stop-color="#ABD3FF"/>
<stop offset="1" stop-color="#DCEDFF"/>
</radialGradient>
</defs>
</svg>
