<svg width="32" height="40" viewBox="0 0 32 40" fill="none" xmlns="http://www.w3.org/2000/svg">
<path d="M3.72038 22.7109C3.72038 22.2064 4.25629 21.7975 4.91737 21.7975H27.0618C27.7228 21.7975 28.2588 22.2064 28.2588 22.7109V27.4834L28.3153 38.3589C28.3192 39.1203 27.1724 39.551 26.3842 39.084L16.7341 34.8932C16.3022 34.6373 15.6979 34.6373 15.266 34.8932L5.61587 39.084C4.82772 39.551 3.68087 39.1203 3.68482 38.3589L3.72038 31.5181V22.7109Z" fill="url(#paint0_linear_3142_6838)"/>
<circle cx="16" cy="16" r="16" fill="url(#paint1_radial_3142_6838)"/>
<circle cx="16.0005" cy="15.7194" r="12.3509" fill="url(#paint2_linear_3142_6838)"/>
<path d="M15.0492 9.66399C15.3485 8.74268 16.6519 8.74268 16.9513 9.66399L17.8554 12.4466C17.9893 12.8587 18.3732 13.1376 18.8065 13.1376H21.7323C22.701 13.1376 23.1038 14.3772 22.3201 14.9466L19.953 16.6664C19.6026 16.9211 19.4559 17.3724 19.5898 17.7844L20.4939 20.5671C20.7933 21.4884 19.7388 22.2545 18.9551 21.6851L16.588 19.9654C16.2375 19.7107 15.7629 19.7107 15.4124 19.9654L13.0454 21.6851C12.2617 22.2545 11.2072 21.4884 11.5065 20.5671L12.4107 17.7844C12.5445 17.3724 12.3979 16.9211 12.0474 16.6664L9.68033 14.9466C8.89662 14.3772 9.29939 13.1376 10.2681 13.1376H13.194C13.6272 13.1376 14.0111 12.8587 14.145 12.4466L15.0492 9.66399Z" fill="#FFE075"/>
<defs>
<linearGradient id="paint0_linear_3142_6838" x1="16.0001" y1="21.7975" x2="16.0001" y2="39.2777" gradientUnits="userSpaceOnUse">
<stop stop-color="#990000"/>
<stop offset="1" stop-color="#FF0000"/>
</linearGradient>
<radialGradient id="paint1_radial_3142_6838" cx="0" cy="0" r="1" gradientUnits="userSpaceOnUse" gradientTransform="translate(16 16) rotate(90) scale(16)">
<stop stop-color="#FFC600"/>
<stop offset="1" stop-color="#FFE075"/>
</radialGradient>
<linearGradient id="paint2_linear_3142_6838" x1="16.0005" y1="3.36853" x2="16.0005" y2="28.0703" gradientUnits="userSpaceOnUse">
<stop stop-color="#FFD43E"/>
<stop offset="1" stop-color="#FF8800"/>
</linearGradient>
</defs>
</svg>
